<svg width="512" height="512" viewBox="0 0 512 512" fill="none" xmlns="http://www.w3.org/2000/svg">
  <!-- Arka plan -->
  <rect width="512" height="512" rx="110" fill="#1e40af"/>

  <!-- Terazi simgesi -->
  <!-- Sol kefe -->
  <circle cx="160" cy="220" r="60" fill="white" opacity="0.9"/>
  <path d="M 120 220 L 200 220 L 190 260 L 130 260 Z" fill="white"/>

  <!-- Sağ kefe -->
  <circle cx="352" cy="220" r="60" fill="white" opacity="0.9"/>
  <path d="M 312 220 L 392 220 L 382 260 L 322 260 Z" fill="white"/>

  <!-- Orta direk -->
  <rect x="246" y="140" width="20" height="260" fill="white" rx="10"/>

  <!-- Üst çubuk -->
  <rect x="140" y="160" width="232" height="16" fill="white" rx="8"/>

  <!-- Bağlantı ipleri -->
  <line x1="160" y1="168" x2="160" y2="220" stroke="white" stroke-width="4"/>
  <line x1="352" y1="168" x2="352" y2="220" stroke="white" stroke-width="4"/>

  <!-- Taban -->
  <rect x="206" y="380" width="100" height="20" fill="white" rx="10"/>

  <!-- Dekoratif çizgiler (hukuk kitabı simgesi) -->
  <rect x="80" y="360" width="80" height="100" fill="white" opacity="0.3" rx="5"/>
  <line x1="90" y1="380" x2="150" y2="380" stroke="#1e40af" stroke-width="2"/>
  <line x1="90" y1="400" x2="150" y2="400" stroke="#1e40af" stroke-width="2"/>
  <line x1="90" y1="420" x2="150" y2="420" stroke="#1e40af" stroke-width="2"/>

  <!-- Dekoratif çizgiler (çekiç simgesi) -->
  <rect x="352" y="360" width="80" height="100" fill="white" opacity="0.3" rx="5"/>
  <rect x="380" y="370" width="24" height="40" fill="#1e40af" rx="3"/>
  <rect x="386" y="405" width="12" height="45" fill="#1e40af" rx="2"/>
</svg>
